# Blender v2.92.0 OBJ File: 'Models.blend'
# www.blender.org
o SM_Slums_Distance_03a_OP.001
v 2.999564 1.571708 2.743486
v 3.016064 3.191916 2.728098
v 2.971064 3.191916 2.993211
v 2.954564 1.571708 2.993599
v 2.999564 1.571708 2.645448
v 3.016064 3.191916 2.645061
v 2.999564 1.571708 3.646416
v 3.016064 3.191916 3.646029
v 3.016064 3.191916 3.744024
v 2.999564 1.571708 3.744411
v 2.964959 1.571708 1.982465
v 2.964959 3.191916 1.982076
v 2.964959 3.191916 2.641730
v 2.964959 1.571708 2.642117
v 2.971064 3.191916 3.642748
v 2.954565 1.571708 3.643135
v 2.999564 1.571708 1.979132
v 3.016064 3.191916 1.978745
v 2.999564 1.571708 1.879569
v 3.016064 3.191916 1.879181
v -0.564275 5.425006 5.029146
v -0.087586 5.428151 5.100083
v -0.087586 5.429993 5.020043
v -0.564275 5.416206 5.102595
v -1.702467 5.433520 5.077459
v -1.601527 5.432839 5.087608
v -1.702420 5.439917 5.069318
v -1.601527 5.443115 5.010099
v -1.702784 5.883448 5.071293
v -1.601527 5.882305 5.098103
v -1.703459 5.883171 5.084261
v -1.601527 5.881799 5.017452
v -0.107925 5.947391 5.077576
v -0.914981 5.947391 5.047012
v -0.107925 5.347391 5.061075
v -0.922869 5.347391 5.061075
v -1.707925 5.947391 5.017576
v -1.707925 5.347391 5.061075
v -1.707925 5.947391 5.077576
v -1.707925 5.347391 5.001075
v -0.107925 5.947391 5.017576
v -0.107925 5.347391 5.001075
v 1.125020 4.123036 4.990452
v 1.775672 2.965371 4.990452
v 1.776060 4.123036 4.990452
v 1.124633 2.965371 4.990452
v -1.124501 5.418783 5.031393
v -1.124501 5.406371 5.101894
v -0.564275 5.875783 5.085327
v -1.124501 5.891050 5.027417
v -0.564275 5.876204 5.001889
v -1.124501 5.897020 5.102554
v -1.605400 5.947391 5.040398
v -1.605788 5.347391 5.040398
v -1.608681 5.947391 5.077576
v -1.609068 5.347391 5.061075
v 0.473595 4.123036 4.990452
v 0.473592 2.965371 4.990452
v 0.395594 4.123036 4.990452
v 0.395593 2.965371 4.990452
v -1.707925 5.285056 5.105230
v -1.703459 5.280180 5.112294
v -0.245057 5.257613 5.093781
v -0.087586 5.274938 5.102701
v -0.087586 6.036021 5.100083
v -0.087586 5.888861 5.102701
v -1.702467 6.032805 5.095281
v -0.090821 5.876741 5.029815
v -0.080564 5.876782 5.096317
v -3.445127 4.551245 2.986517
v -3.306391 4.556066 2.989313
v -3.306391 4.547924 2.535641
v -3.449452 4.389651 2.985198
v -3.306391 4.385898 2.988136
v -3.443482 6.197268 2.987034
v -3.448377 6.075621 2.985274
v -3.306391 6.074860 2.988136
v -3.306391 6.200784 2.989313
v -3.425119 6.080553 1.374132
v -3.438901 6.194853 1.374813
v -3.309660 6.205100 1.372125
v -3.303156 6.080979 1.377005
v -3.292348 4.538991 1.373412
v -3.323302 4.371976 1.130173
v -3.452675 4.404141 1.374132
v -3.421773 4.557291 1.376061
v -3.291389 4.544167 1.479473
v -3.433342 4.560865 1.479473
v -3.306964 4.552504 1.956499
v -3.323915 4.368673 1.479473
v -3.458035 4.401229 1.479473
v -3.451131 4.535465 1.956499
v -3.448145 4.403299 1.956499
v -3.306391 4.399190 1.709666
v -3.450359 4.543495 2.535641
v -3.426422 4.409985 2.540142
v -3.308360 4.374316 2.293309
v -3.306391 6.070715 2.288808
v -3.426768 6.070820 2.535641
v -3.450359 6.199806 2.535641
v -3.338054 4.470279 2.128029
v -3.354554 6.090487 2.143416
v -3.309554 6.090487 2.125136
v -3.293054 4.470279 2.124748
v -3.338054 4.470279 2.226066
v -3.354554 6.090487 2.226454
v -3.338054 4.470279 1.471931
v -3.354554 6.090487 1.472318
v -3.354554 6.090487 1.374323
v -3.338054 4.470279 1.373936
v -3.303449 4.470279 2.889050
v -3.303449 6.090487 2.889438
v -3.303449 6.090487 2.229784
v -3.303449 4.470279 2.229398
v -3.309554 6.090487 1.475599
v -3.293054 4.470279 1.475212
v -3.338054 4.470279 2.892382
v -3.354554 6.090487 2.892770
v -3.338054 4.470279 2.991946
v -3.354554 6.090487 2.992334
vt 0.000000 0.034668
vt -1.000000 0.034668
vt -1.000000 0.020020
vt 0.000000 0.020020
vt 0.000000 0.000000
vt -1.000000 0.000488
vt 0.000000 0.265625
vt -1.000000 0.265625
vt -1.000000 0.300293
vt 0.000000 0.300293
vt 1.000000 0.286621
vt 0.000000 0.286621
vt 0.000000 0.019531
vt 1.000000 0.019531
vt -1.000000 0.284668
vt 0.000000 0.284668
vt 0.000000 0.034180
vt 1.000000 0.034180
vt 1.000000 0.265625
vt 0.000000 0.265625
vt 1.000000 0.300293
vt 0.000000 0.300293
vt 0.577637 0.364746
vt 0.770996 0.339355
vt 0.764648 0.370605
vt 0.583496 0.335938
vt 0.130981 0.343262
vt 0.171143 0.341797
vt 0.129761 0.347168
vt 0.165039 0.372559
vt 0.142212 0.276855
vt 0.181885 0.283691
vt 0.141357 0.282227
vt 0.186401 0.252441
vt 0.300293 0.328125
vt 0.300781 0.001465
vt 0.683594 0.328125
vt 0.684082 -0.001953
vt -1.000000 0.284668
vt 0.000000 0.265625
vt -1.000000 0.265625
vt 0.000000 0.284668
vt -1.000000 0.284668
vt 0.000000 0.265625
vt 0.000000 0.284668
vt -1.000000 0.265625
vt 0.000000 0.034180
vt 1.000000 0.300781
vt 0.000000 0.301270
vt 1.000000 0.033691
vt 0.356689 0.360840
vt 0.361816 0.332520
vt 0.592285 0.277832
vt 0.374512 0.257812
vt 0.597656 0.245117
vt 0.369385 0.287598
vt -0.315430 -0.001953
vt -0.698242 -0.004883
vt -0.699219 0.284668
vt -0.315674 0.284668
vt -0.698730 0.285645
vt -0.315430 0.286133
vt -0.699219 0.327637
vt -0.315674 0.327637
vt -1.000000 0.266602
vt 0.000000 -0.001953
vt -1.000000 -0.001953
vt 0.000000 0.266602
vt -1.000000 0.300293
vt 0.000000 0.300293
vt 0.138062 0.284668
vt 0.141357 0.282227
vt 0.720703 0.273438
vt 0.780762 0.280762
vt 0.770996 0.339355
vt 0.780762 0.280762
vt 0.130981 0.343262
vt 0.784180 0.251953
vt 0.786621 0.277344
vt 1.032715 0.815314
vt 1.031738 0.875571
vt 0.732910 0.874505
vt 1.122070 0.812114
vt 1.126465 0.878771
vt 1.032715 0.815314
vt 1.126465 0.813714
vt 1.126465 0.878771
vt 1.031738 0.875571
vt -0.153809 0.814781
vt -0.056152 0.815314
vt -0.057129 0.877171
vt -0.153809 0.856374
vt -0.057129 0.877171
vt -0.153809 0.856374
vt -0.153809 0.814781
vt -0.058105 0.814514
vt 0.016113 0.874505
vt 0.016113 0.814247
vt -0.061035 0.743325
vt 0.334473 0.874505
vt -0.060059 0.680934
vt 0.016113 0.680934
vt 0.016113 0.740925
vt 0.334473 0.814247
vt 0.334473 0.740925
vt 0.334473 0.680934
vt 0.732910 0.814247
vt 0.732910 0.740925
vt 0.732910 0.680934
vt 1.031250 0.743591
vt 1.033203 0.679335
vt -0.061035 0.743325
vt -0.060059 0.680934
vt 0.732910 0.680934
vt 0.732910 0.740925
vt 0.732910 0.814247
vt 0.991699 0.751857
vt 1.033203 0.679335
vt 0.000000 0.034668
vt -1.000000 0.034668
vt -1.000000 0.020020
vt 0.000000 0.020020
vt 0.000000 0.000000
vt -1.000000 0.000488
vt 0.000000 0.265625
vt -1.000000 0.265625
vt -1.000000 0.300293
vt 0.000000 0.300293
vt 1.000000 0.286621
vt 0.000000 0.286621
vt 0.000000 0.019531
vt 1.000000 0.019531
vt -1.000000 0.284668
vt 0.000000 0.284668
vt 0.000000 0.034180
vt 1.000000 0.034180
vt 1.000000 0.265625
vt 0.000000 0.265625
vt 1.000000 0.300293
vt 0.000000 0.300293
vn 0.8891 -0.0438 0.4556
vn 0.9860 -0.0056 0.1669
vn 0.9847 -0.0061 0.1743
vn 0.9917 0.0300 -0.1254
vn 0.9838 -0.0095 0.1790
vn 0.9852 -0.0089 0.1714
vn 1.0000 -0.0078 -0.0000
vn 1.0000 -0.0079 -0.0000
vn 1.0000 0.0000 0.0000
vn 0.0629 -0.0000 -0.9980
vn 0.0952 -0.0003 -0.9955
vn 0.0950 -0.0000 -0.9955
vn 0.0948 0.0000 0.9955
vn 0.0629 0.0000 0.9980
vn 0.0950 0.0000 0.9955
vn 0.0951 0.0001 0.9955
vn 0.0707 -0.0000 -0.9975
vn -0.0237 0.9936 0.1104
vn -0.0079 0.9995 0.0315
vn -0.0079 0.9997 0.0236
vn -0.0238 0.9927 0.1184
vn -0.0551 0.7873 0.6141
vn 0.0394 0.9854 0.1655
vn -0.0237 0.8845 0.4659
vn 0.0471 0.9899 0.1335
vn -0.0079 -0.9999 -0.0079
vn -0.0157 -0.9999 -0.0000
vn -0.0079 -0.9997 -0.0236
vn -0.0157 -0.9998 0.0078
vn -0.0393 -0.0236 0.9989
vn -0.0157 0.0000 0.9999
vn -0.0236 -0.0079 0.9997
vn 0.0000 0.0234 0.9997
vn -1.0000 -0.0000 0.0000
vn 0.0000 0.0000 1.0000
vn -0.0158 0.9861 0.1657
vn -0.0079 0.9920 0.1259
vn -0.0080 0.9930 0.1182
vn -0.0079 0.9920 0.1260
vn -0.0159 0.9847 0.1733
vn 0.0470 0.9899 0.1336
vn 0.0473 0.9851 0.1655
vn 0.0472 0.9838 0.1731
vn -0.0236 -0.9997 0.0000
vn -0.0314 -0.9970 0.0707
vn -0.0236 -0.9997 -0.0078
vn -0.0314 -0.9964 0.0785
vn 0.0236 -0.9996 0.0157
vn 0.0314 -0.9970 0.0707
vn 0.0314 -0.9964 0.0785
vn 0.0314 -0.9970 0.0706
vn 0.0236 -0.9996 0.0158
vn 0.0158 -0.9998 0.0079
vn -0.0158 0.0157 0.9998
vn -0.0079 0.0236 0.9997
vn 0.6668 0.0078 0.7452
vn 0.6371 -0.0000 0.7708
vn 0.6706 -0.0158 0.7416
vn 0.6538 -0.0236 0.7563
vn -0.0000 -0.0236 0.9997
vn 0.6538 -0.0237 0.7563
vn -0.0000 -0.0237 0.9997
vn -0.4574 0.4258 0.7807
vn -0.0550 0.1807 0.9820
vn -0.0946 0.1892 0.9774
vn -0.3379 0.3536 0.8722
vn 0.0079 0.0315 0.9995
vn -0.0079 -0.0236 0.9997
vn -0.0001 -0.0551 0.9985
vn -0.0236 -0.0157 0.9996
vn -0.0550 0.0157 0.9984
vn -0.0236 0.0000 0.9997
vn 0.0157 -0.1414 0.9898
vn -0.0393 0.0157 0.9991
vn 0.0000 0.0236 0.9997
vn -0.0550 -0.0157 0.9984
vn -0.0472 -0.0157 0.9988
vn -0.1335 -0.0708 0.9885
vn -0.3703 -0.9140 0.1655
vn -0.0710 -0.9862 0.1499
vn -0.8254 -0.5503 0.1258
vn 0.0000 -1.0000 0.0079
vn -0.0710 -0.9861 0.1499
vn 0.0000 -1.0000 -0.0079
vn -0.5954 0.5720 0.5642
vn -0.0315 0.9994 -0.0157
vn -0.5955 0.5720 0.5641
vn -0.6133 -0.5740 0.5425
vn -0.0589 -0.7185 0.6930
vn -0.6911 0.0158 0.7225
vn -0.5979 -0.5677 0.5660
vn -0.0158 -0.7042 0.7098
vn -0.0158 -0.0079 0.9998
vn 0.0000 -0.0158 -0.9999
vn -0.0236 0.0001 -0.9997
vn -0.0000 -0.0157 -0.9999
vn 0.0236 -0.0391 -0.9990
vn -0.1671 0.8503 -0.4992
vn -0.8785 0.0573 -0.4742
vn -0.8363 -0.3980 -0.3771
vn -0.4411 0.6616 -0.6064
vn 0.1259 0.9918 -0.0237
vn -0.6056 0.7943 -0.0472
vn -0.0870 0.9961 0.0158
vn -0.2028 -0.9792 0.0051
vn -0.8280 -0.5599 -0.0315
vn -0.7564 0.6540 0.0158
vn -0.7024 -0.7114 0.0226
vn 0.1255 -0.9877 0.0934
vn -0.7777 0.6285 0.0157
vn -0.0315 0.9995 0.0000
vn -0.7330 -0.6800 0.0170
vn -0.3514 -0.9357 -0.0324
vn -0.6673 -0.7447 -0.0093
vn 0.0000 -0.9999 -0.0103
vn -0.0120 -0.9999 -0.0069
vn -0.6253 -0.7803 -0.0109
vn -0.9920 -0.1260 -0.0000
vn -0.9859 -0.1657 -0.0237
vn -0.0785 0.0000 -0.9969
vn -0.3768 0.0078 -0.9263
vn -0.3700 0.0079 -0.9290
vn -0.0707 -0.0000 -0.9975
vn -1.0000 -0.0078 0.0000
vn -1.0000 -0.0079 0.0000
vn -0.0629 -0.0000 0.9980
vn -0.0952 -0.0003 0.9955
vn -0.0949 -0.0000 0.9955
vn -0.0948 0.0000 -0.9955
vn -0.0628 0.0000 -0.9980
vn -0.0629 0.0000 -0.9980
vn -0.0949 0.0000 -0.9955
vn -0.0707 -0.0000 0.9975
s 1
f 1/1/1 2/2/2 3/3/3
f 3/3/4 4/4/5 1/1/6
f 2/2/7 1/1/7 5/5/7
f 5/5/8 6/6/8 2/2/8
f 7/7/8 8/8/8 9/9/8
f 9/9/8 10/10/8 7/7/8
f 11/11/9 12/12/9 13/13/9
f 13/13/9 14/14/9 11/11/9
f 4/4/8 3/3/8 15/15/8
f 15/15/8 16/16/8 4/4/8
f 13/13/10 6/17/10 5/18/11
f 5/18/11 14/14/12 13/13/10
f 17/19/13 18/20/14 12/12/14
f 12/12/14 11/11/15 17/19/16
f 19/21/7 20/22/7 18/20/7
f 18/20/7 17/19/7 19/21/7
f 15/15/17 8/8/17 7/7/17
f 7/7/17 16/16/17 15/15/17
f 21/23/18 22/24/19 23/25/20
f 22/24/19 21/23/18 24/26/21
f 25/27/22 26/28/23 27/29/24
f 28/30/25 27/29/24 26/28/23
f 29/31/26 30/32/27 31/33/28
f 32/34/29 30/32/27 29/31/26
f 33/35/30 34/36/31 35/37/32
f 34/36/31 36/38/33 35/37/32
f 37/39/34 38/40/34 39/41/34
f 38/40/34 37/39/34 40/42/34
f 41/43/9 35/44/9 42/45/9
f 35/44/9 41/43/9 33/46/9
f 43/47/35 44/48/35 45/49/35
f 44/48/35 43/47/35 46/50/35
f 47/51/36 24/26/37 21/23/38
f 24/26/39 47/51/36 48/52/40
f 26/28/41 47/51/42 28/30/25
f 47/51/42 26/28/41 48/52/43
f 49/53/44 50/54/45 51/55/46
f 50/54/45 49/53/44 52/56/47
f 30/32/48 50/54/49 52/56/50
f 50/54/51 30/32/52 32/34/53
f 36/57/54 34/58/55 53/59/56
f 53/59/56 54/60/57 36/57/54
f 54/60/57 53/59/56 55/61/58
f 55/61/58 56/62/59 54/60/57
f 39/63/60 56/62/59 55/61/58
f 56/62/61 39/63/62 38/64/62
f 57/65/35 46/66/35 43/67/35
f 46/66/35 57/65/35 58/68/35
f 59/69/35 58/68/35 57/65/35
f 58/68/35 59/69/35 60/70/35
f 61/71/63 26/28/64 25/27/65
f 26/28/64 61/71/63 62/72/66
f 26/28/64 62/72/66 48/52/67
f 63/73/68 48/52/67 62/72/66
f 48/52/67 63/73/68 24/26/69
f 63/73/68 22/24/70 24/26/69
f 22/24/70 63/73/68 64/74/71
f 65/75/72 49/53/73 66/76/74
f 65/75/72 52/56/75 49/53/73
f 65/75/72 67/77/76 52/56/75
f 67/77/76 30/32/77 52/56/75
f 30/32/77 67/77/76 31/33/78
f 66/76/79 68/78/80 69/79/81
f 49/53/82 68/78/83 66/76/79
f 68/78/83 49/53/82 51/55/84
f 70/80/85 71/81/86 72/82/86
f 70/80/87 73/83/88 74/84/89
f 71/81/32 70/80/87 74/84/89
f 75/85/90 76/86/91 77/87/92
f 77/87/92 78/88/93 75/85/90
f 79/89/94 80/90/95 81/91/96
f 81/91/96 82/92/97 79/89/94
f 83/93/98 84/94/99 85/95/100
f 85/95/100 86/96/101 83/93/98
f 87/97/102 83/93/98 86/96/101
f 86/96/101 88/98/103 87/97/102
f 88/98/103 86/96/101 85/99/100
f 89/100/104 87/97/102 88/98/103
f 85/99/100 84/101/99 90/102/105
f 85/99/100 91/103/106 88/98/103
f 90/102/105 91/103/106 85/99/100
f 88/98/103 92/104/107 89/100/104
f 92/104/107 88/98/103 91/103/106
f 93/105/108 91/103/106 90/102/105
f 91/103/106 93/105/108 92/104/107
f 90/102/105 94/106/109 93/105/108
f 89/100/104 92/104/107 95/107/110
f 95/107/110 92/104/107 93/105/108
f 95/107/110 72/82/111 89/100/104
f 72/82/111 95/107/110 70/80/87
f 96/108/112 93/105/108 94/106/109
f 93/105/108 96/108/112 95/107/110
f 70/80/87 95/107/110 96/108/112
f 94/106/109 97/109/113 96/108/112
f 96/108/112 73/110/88 70/80/87
f 96/108/112 97/109/113 74/111/89
f 74/111/89 73/110/88 96/108/112
f 79/112/114 82/113/115 98/114/116
f 98/114/116 99/115/117 79/112/114
f 80/90/118 79/112/114 99/115/117
f 99/115/117 100/116/119 80/90/118
f 99/115/117 98/114/116 76/117/91
f 99/115/117 76/117/91 100/116/119
f 76/117/91 98/114/116 77/118/92
f 100/116/119 76/117/91 75/85/90
f 101/119/120 102/120/121 103/121/122
f 103/121/122 104/122/123 101/119/120
f 102/120/124 101/119/124 105/123/124
f 105/123/125 106/124/125 102/120/125
f 107/125/125 108/126/125 109/127/125
f 109/127/125 110/128/125 107/125/125
f 111/129/34 112/130/34 113/131/34
f 113/131/34 114/132/34 111/129/34
f 104/122/125 103/121/125 115/133/125
f 115/133/125 116/134/125 104/122/125
f 113/131/126 106/135/126 105/136/127
f 105/136/127 114/132/128 113/131/126
f 117/137/129 118/138/130 112/130/130
f 112/130/131 111/129/132 117/137/132
f 119/139/124 120/140/124 118/138/124
f 118/138/124 117/137/124 119/139/124
f 115/133/133 108/126/133 107/125/133
f 107/125/133 116/134/133 115/133/133
