# Blender v2.92.0 OBJ File: 'Models_Preview.blend'
# www.blender.org
o SM_Slums_Distance_02e_OP.001
v -1.905481 3.416683 -2.914190
v -1.908276 3.421504 -2.775453
v -1.454604 3.413362 -2.775454
v -1.904161 3.255089 -2.918514
v -1.907100 3.251336 -2.775453
v -1.905997 5.062705 -2.912545
v -1.904238 4.941058 -2.917439
v -1.907100 4.940297 -2.775453
v -1.908276 5.066221 -2.775453
v -0.293096 4.945991 -2.894182
v -0.293777 5.060290 -2.907964
v -0.291089 5.070537 -2.778724
v -0.295969 4.946417 -2.772219
v -0.292375 3.404429 -2.761411
v -0.295969 3.237413 -2.792365
v -0.293096 3.269579 -2.921738
v -0.295024 3.422728 -2.890836
v -0.398436 3.409605 -2.760452
v -0.398436 3.426303 -2.902405
v -0.875462 3.417942 -2.776028
v -0.398436 3.234111 -2.792978
v -0.398436 3.266666 -2.927098
v -0.875462 3.400903 -2.920194
v -0.875462 3.268737 -2.917208
v -0.875462 3.264628 -2.775454
v -1.454604 3.408932 -2.919421
v -1.459105 3.275423 -2.895484
v -1.459105 3.239754 -2.777423
v -1.454604 4.936153 -2.775454
v -1.454604 4.936257 -2.895831
v -1.454604 5.065244 -2.919421
v -1.046992 3.335717 -2.807117
v -1.062379 4.955925 -2.823617
v -1.044099 4.955925 -2.778617
v -1.043711 3.335717 -2.762117
v -1.145029 3.335717 -2.807117
v -1.145417 4.955925 -2.823617
v -0.390894 3.335717 -2.807117
v -0.391281 4.955925 -2.823617
v -0.293286 4.955925 -2.823617
v -0.292899 3.335717 -2.807117
v -1.808013 3.335717 -2.772511
v -1.808401 4.955925 -2.772511
v -1.148748 4.955925 -2.772512
v -1.148361 3.335717 -2.772512
v -0.394562 4.955925 -2.778617
v -0.394175 3.335717 -2.762117
v -1.811345 3.335717 -2.807116
v -1.811733 4.955925 -2.823616
v -1.910909 3.335717 -2.807116
v -1.911297 4.955925 -2.823616
v 1.915740 1.309721 2.373786
v 1.918535 1.314542 2.235050
v 1.464863 1.306399 2.235050
v 1.914420 1.148127 2.378111
v 1.917359 1.144374 2.235050
v 1.916256 2.955743 2.372142
v 1.914497 2.834096 2.377036
v 1.917359 2.833335 2.235050
v 1.918535 2.959259 2.235050
v 0.303355 2.839029 2.353779
v 0.304036 2.953328 2.367561
v 0.301348 2.963575 2.238321
v 0.306228 2.839455 2.231815
v 0.302635 1.297467 2.221008
v 0.306228 1.130451 2.251962
v 0.303355 1.162617 2.381335
v 0.305283 1.315766 2.350433
v 0.408695 1.302643 2.220048
v 0.408695 1.319341 2.362001
v 0.885721 1.310980 2.235624
v 0.408695 1.127149 2.252575
v 0.408695 1.159704 2.386694
v 0.885721 1.293941 2.379790
v 0.885721 1.161774 2.376805
v 0.885721 1.157665 2.235050
v 1.464864 1.301970 2.379018
v 1.469365 1.168461 2.355081
v 1.469364 1.132792 2.237019
v 1.464863 2.829190 2.235050
v 1.464864 2.829295 2.355428
v 1.464864 2.958282 2.379018
v 1.057251 1.228754 2.266713
v 1.072638 2.848963 2.283213
v 1.054358 2.848963 2.238214
v 1.053970 1.228754 2.221713
v 1.155288 1.228754 2.266713
v 1.155676 2.848963 2.283213
v 0.401153 1.228754 2.266713
v 0.401540 2.848963 2.283214
v 0.303545 2.848963 2.283214
v 0.303158 1.228754 2.266713
v 1.818272 1.228754 2.232108
v 1.818660 2.848963 2.232108
v 1.159007 2.848963 2.232108
v 1.158620 1.228754 2.232108
v 0.404821 2.848963 2.238214
v 0.404434 1.228754 2.221714
v 1.821604 1.228754 2.266713
v 1.821992 2.848963 2.283213
v 1.921168 1.228754 2.266713
v 1.921556 2.848963 2.283213
vt 1.032715 0.815314
vt 1.031738 0.875571
vt 0.732910 0.874505
vt 1.122070 0.812114
vt 1.126465 0.878771
vt 1.032715 0.815314
vt 1.126465 0.813714
vt 1.126465 0.878771
vt 1.031738 0.875571
vt -0.153809 0.814781
vt -0.056152 0.815314
vt -0.057129 0.877171
vt -0.153809 0.856374
vt -0.057129 0.877171
vt -0.153809 0.856374
vt -0.153809 0.814781
vt -0.058105 0.814514
vt 0.016113 0.874505
vt 0.016113 0.814247
vt -0.061035 0.743325
vt 0.334473 0.874505
vt -0.060059 0.680934
vt 0.016113 0.680934
vt 0.016113 0.740925
vt 0.334473 0.814247
vt 0.334473 0.740925
vt 0.334473 0.680934
vt 0.732910 0.814247
vt 0.732910 0.740925
vt 0.732910 0.680934
vt 1.031250 0.743591
vt 1.033203 0.679335
vt -0.061035 0.743325
vt -0.060059 0.680934
vt 0.732910 0.680934
vt 0.732910 0.740925
vt 0.732910 0.814247
vt 0.991699 0.751857
vt 1.033203 0.679335
vt 0.000000 0.034668
vt -1.000000 0.034668
vt -1.000000 0.020020
vt 0.000000 0.020020
vt 0.000000 0.000000
vt -1.000000 0.000488
vt 0.000000 0.265625
vt -1.000000 0.265625
vt -1.000000 0.300293
vt 0.000000 0.300293
vt 1.000000 0.286621
vt 0.000000 0.286621
vt 0.000000 0.019531
vt 1.000000 0.019531
vt -1.000000 0.284668
vt 0.000000 0.284668
vt 0.000000 0.034180
vt 1.000000 0.034180
vt 1.000000 0.265625
vt 0.000000 0.265625
vt 1.000000 0.300293
vt 0.000000 0.300293
vt 1.032715 0.815314
vt 1.031738 0.875571
vt 0.732910 0.874505
vt 1.122070 0.812114
vt 1.126465 0.878771
vt 1.032715 0.815314
vt 1.126465 0.813714
vt 1.126465 0.878771
vt 1.031738 0.875571
vt -0.153809 0.814781
vt -0.056152 0.815314
vt -0.057129 0.877171
vt -0.153809 0.856374
vt -0.057129 0.877171
vt -0.153809 0.856374
vt -0.153809 0.814781
vt -0.058105 0.814514
vt 0.016113 0.874505
vt 0.016113 0.814247
vt -0.061035 0.743325
vt 0.334473 0.874505
vt -0.060059 0.680934
vt 0.016113 0.680934
vt 0.016113 0.740925
vt 0.334473 0.814247
vt 0.334473 0.740925
vt 0.334473 0.680934
vt 0.732910 0.814247
vt 0.732910 0.740925
vt 0.732910 0.680934
vt 1.031250 0.743591
vt 1.033203 0.679335
vt -0.061035 0.743325
vt -0.060059 0.680934
vt 0.732910 0.680934
vt 0.732910 0.740925
vt 0.732910 0.814247
vt 0.991699 0.751857
vt 1.033203 0.679335
vt 0.000000 0.034668
vt -1.000000 0.034668
vt -1.000000 0.020020
vt 0.000000 0.020020
vt 0.000000 0.000000
vt -1.000000 0.000488
vt 0.000000 0.265625
vt -1.000000 0.265625
vt -1.000000 0.300293
vt 0.000000 0.300293
vt 1.000000 0.286621
vt 0.000000 0.286621
vt 0.000000 0.019531
vt 1.000000 0.019531
vt -1.000000 0.284668
vt 0.000000 0.284668
vt 0.000000 0.034180
vt 1.000000 0.034180
vt 1.000000 0.265625
vt 0.000000 0.265625
vt 1.000000 0.300293
vt 0.000000 0.300293
vn -0.5642 0.5720 -0.5954
vn 0.0157 0.9994 -0.0315
vn -0.5641 0.5720 -0.5955
vn -0.5426 -0.5740 -0.6133
vn -0.6938 -0.7174 -0.0631
vn -0.9997 -0.0079 -0.0236
vn -0.7226 0.0157 -0.6911
vn -0.5667 -0.5667 -0.5981
vn -0.7110 -0.7031 -0.0158
vn -0.9998 -0.0079 -0.0158
vn 0.9999 -0.0158 0.0000
vn 0.9997 0.0000 -0.0236
vn 0.9999 -0.0157 -0.0000
vn 0.9990 -0.0392 0.0236
vn 0.7196 0.6879 0.0949
vn 0.6943 -0.7022 -0.1578
vn 0.6065 -0.4410 -0.6616
vn 0.6064 0.6616 -0.4411
vn 0.0237 0.9918 0.1259
vn 0.0472 0.7943 -0.6056
vn -0.0158 0.9961 -0.0870
vn 0.0079 -0.9754 -0.2202
vn 0.0315 -0.5599 -0.8280
vn -0.0158 0.6540 -0.7564
vn -0.0314 -0.6988 -0.7146
vn -0.0315 -0.9984 -0.0472
vn -0.0157 0.6285 -0.7777
vn -0.0000 0.9995 -0.0315
vn -0.0078 -0.6750 -0.7378
vn 0.0078 -0.9569 -0.2902
vn 0.0078 -0.7452 -0.6668
vn 0.0079 -1.0000 -0.0000
vn -0.0000 -1.0000 -0.0001
vn 0.0158 -0.7745 -0.6323
vn 0.0000 -0.1260 -0.9920
vn 0.0237 -0.1657 -0.9859
vn 0.9969 0.0000 -0.0785
vn 0.9263 0.0079 -0.3768
vn 0.9290 0.0079 -0.3700
vn 0.9975 -0.0000 -0.0707
vn -0.0000 -0.0078 -1.0000
vn -0.0000 -0.0079 -1.0000
vn -0.0000 -0.0000 -1.0000
vn -0.9980 -0.0000 -0.0629
vn -0.9955 -0.0000 -0.0948
vn 0.9955 0.0000 -0.0948
vn 0.9980 0.0000 -0.0629
vn -0.9975 -0.0000 -0.0707
vn 0.5642 0.5720 0.5954
vn -0.0157 0.9994 0.0315
vn 0.5641 0.5720 0.5955
vn 0.5426 -0.5740 0.6133
vn 0.6938 -0.7174 0.0631
vn 0.9997 -0.0079 0.0236
vn 0.7225 0.0158 0.6911
vn 0.5667 -0.5667 0.5981
vn 0.7110 -0.7031 0.0158
vn 0.9998 -0.0079 0.0158
vn -0.9999 -0.0158 -0.0000
vn -0.9997 0.0001 0.0236
vn -0.9999 -0.0157 0.0000
vn -0.9990 -0.0391 -0.0236
vn -0.7197 0.6878 -0.0949
vn -0.6943 -0.7022 0.1578
vn -0.6065 -0.4410 0.6616
vn -0.6065 0.6616 0.4411
vn -0.0237 0.9918 -0.1259
vn -0.0472 0.7943 0.6056
vn 0.0158 0.9961 0.0870
vn -0.0079 -0.9754 0.2202
vn -0.0315 -0.5599 0.8280
vn 0.0158 0.6540 0.7564
vn 0.0314 -0.6989 0.7145
vn 0.0315 -0.9984 0.0472
vn 0.0157 0.6285 0.7777
vn 0.0000 0.9995 0.0315
vn 0.0077 -0.6750 0.7378
vn -0.0078 -0.9570 0.2901
vn -0.0078 -0.7452 0.6668
vn -0.0079 -1.0000 0.0001
vn 0.0001 -1.0000 0.0001
vn -0.0158 -0.7745 0.6324
vn -0.0000 -0.1260 0.9920
vn -0.0237 -0.1657 0.9859
vn -0.9969 0.0000 0.0785
vn -0.9263 0.0078 0.3768
vn -0.9290 0.0079 0.3700
vn -0.9975 -0.0000 0.0707
vn 0.0000 -0.0078 1.0000
vn 0.0000 -0.0079 1.0000
vn 0.0000 -0.0000 1.0000
vn 0.9980 -0.0000 0.0629
vn 0.9955 -0.0003 0.0952
vn 0.9955 -0.0000 0.0949
vn -0.9955 0.0000 0.0948
vn -0.9980 0.0000 0.0629
vn -0.9955 0.0000 0.0949
vn 0.9975 -0.0000 0.0707
s 1
f 1/1/1 2/2/2 3/3/2
f 1/1/3 4/4/4 5/5/5
f 2/2/6 1/1/3 5/5/5
f 6/6/7 7/7/8 8/8/9
f 8/8/9 9/9/10 6/6/7
f 10/10/11 11/11/12 12/12/13
f 12/12/13 13/13/14 10/10/11
f 14/14/15 15/15/16 16/16/17
f 16/16/17 17/17/18 14/14/15
f 18/18/19 14/14/15 17/17/18
f 17/17/18 19/19/20 18/18/19
f 19/19/20 17/17/18 16/20/17
f 20/21/21 18/18/19 19/19/20
f 16/20/17 15/22/16 21/23/22
f 16/20/17 22/24/23 19/19/20
f 21/23/22 22/24/23 16/20/17
f 19/19/20 23/25/24 20/21/21
f 23/25/24 19/19/20 22/24/23
f 24/26/25 22/24/23 21/23/22
f 22/24/23 24/26/25 23/25/24
f 21/23/22 25/27/26 24/26/25
f 20/21/21 23/25/24 26/28/27
f 26/28/27 23/25/24 24/26/25
f 26/28/27 3/3/28 20/21/21
f 3/3/28 26/28/27 1/1/3
f 27/29/29 24/26/25 25/27/26
f 24/26/25 27/29/29 26/28/27
f 1/1/3 26/28/27 27/29/29
f 25/27/26 28/30/30 27/29/29
f 27/29/29 4/31/4 1/1/3
f 27/29/29 28/30/30 5/32/5
f 5/32/5 4/31/4 27/29/29
f 10/33/31 13/34/32 29/35/33
f 29/35/33 30/36/34 10/33/31
f 11/11/35 10/33/31 30/36/34
f 30/36/34 31/37/36 11/11/35
f 30/36/34 29/35/33 7/38/8
f 30/36/34 7/38/8 31/37/36
f 7/38/8 29/35/33 8/39/9
f 31/37/36 7/38/8 6/6/7
f 32/40/37 33/41/38 34/42/39
f 34/42/39 35/43/40 32/40/37
f 33/41/41 32/40/41 36/44/41
f 36/44/42 37/45/42 33/41/42
f 38/46/42 39/47/42 40/48/42
f 40/48/42 41/49/42 38/46/42
f 42/50/43 43/51/43 44/52/43
f 44/52/43 45/53/43 42/50/43
f 35/43/42 34/42/42 46/54/42
f 46/54/42 47/55/42 35/43/42
f 44/52/44 37/56/44 36/57/45
f 36/57/45 45/53/45 44/52/44
f 48/58/46 49/59/47 43/51/47
f 43/51/47 42/50/46 48/58/46
f 50/60/41 51/61/41 49/59/41
f 49/59/41 48/58/41 50/60/41
f 46/54/48 39/47/48 38/46/48
f 38/46/48 47/55/48 46/54/48
f 52/62/49 53/63/50 54/64/50
f 52/62/51 55/65/52 56/66/53
f 53/63/54 52/62/51 56/66/53
f 57/67/55 58/68/56 59/69/57
f 59/69/57 60/70/58 57/67/55
f 61/71/59 62/72/60 63/73/61
f 63/73/61 64/74/62 61/71/59
f 65/75/63 66/76/64 67/77/65
f 67/77/65 68/78/66 65/75/63
f 69/79/67 65/75/63 68/78/66
f 68/78/66 70/80/68 69/79/67
f 70/80/68 68/78/66 67/81/65
f 71/82/69 69/79/67 70/80/68
f 67/81/65 66/83/64 72/84/70
f 67/81/65 73/85/71 70/80/68
f 72/84/70 73/85/71 67/81/65
f 70/80/68 74/86/72 71/82/69
f 74/86/72 70/80/68 73/85/71
f 75/87/73 73/85/71 72/84/70
f 73/85/71 75/87/73 74/86/72
f 72/84/70 76/88/74 75/87/73
f 71/82/69 74/86/72 77/89/75
f 77/89/75 74/86/72 75/87/73
f 77/89/75 54/64/76 71/82/69
f 54/64/76 77/89/75 52/62/51
f 78/90/77 75/87/73 76/88/74
f 75/87/73 78/90/77 77/89/75
f 52/62/51 77/89/75 78/90/77
f 76/88/74 79/91/78 78/90/77
f 78/90/77 55/92/52 52/62/51
f 78/90/77 79/91/78 56/93/53
f 56/93/53 55/92/52 78/90/77
f 61/94/79 64/95/80 80/96/81
f 80/96/81 81/97/82 61/94/79
f 62/72/83 61/94/79 81/97/82
f 81/97/82 82/98/84 62/72/83
f 81/97/82 80/96/81 58/99/56
f 81/97/82 58/99/56 82/98/84
f 58/99/56 80/96/81 59/100/57
f 82/98/84 58/99/56 57/67/55
f 83/101/85 84/102/86 85/103/87
f 85/103/87 86/104/88 83/101/85
f 84/102/89 83/101/89 87/105/89
f 87/105/90 88/106/90 84/102/90
f 89/107/90 90/108/90 91/109/90
f 91/109/90 92/110/90 89/107/90
f 93/111/91 94/112/91 95/113/91
f 95/113/91 96/114/91 93/111/91
f 86/104/90 85/103/90 97/115/90
f 97/115/90 98/116/90 86/104/90
f 95/113/92 88/117/92 87/118/93
f 87/118/93 96/114/94 95/113/92
f 99/119/95 100/120/96 94/112/96
f 94/112/96 93/111/97 99/119/97
f 101/121/89 102/122/89 100/120/89
f 100/120/89 99/119/89 101/121/89
f 97/115/98 90/108/98 89/107/98
f 89/107/98 98/116/98 97/115/98
